<svg width="50" height="43" viewBox="0 0 50 43" fill="none" xmlns="http://www.w3.org/2000/svg">
<path d="M3 2.56564H16.1347C18.457 2.56564 20.6843 3.44373 22.3264 5.00675C23.9686 6.56976 24.8911 8.68966 24.8911 10.9001V40.0707C24.8911 38.4129 24.1992 36.8229 22.9676 35.6507C21.736 34.4784 20.0656 33.8199 18.3238 33.8199H3V2.56564Z" stroke="black" stroke-width="5" stroke-linecap="round" stroke-linejoin="round"/>
<path d="M46.7804 2.56564H33.6457C31.3234 2.56564 29.0961 3.44373 27.454 5.00675C25.8118 6.56976 24.8893 8.68966 24.8893 10.9001V40.0707C24.8893 38.4129 25.5812 36.8229 26.8128 35.6507C28.0444 34.4784 29.7149 33.8199 31.4566 33.8199H46.7804V2.56564Z" stroke="black" stroke-width="5" stroke-linecap="round" stroke-linejoin="round"/>
</svg>
